<?xml version="1.0" encoding="UTF-8"?>
<svg xmlns="http://www.w3.org/2000/svg" xmlns:xlink="http://www.w3.org/1999/xlink" width="16pt" height="16pt" viewBox="0 0 16 16" version="1.1">
<g id="surface1">
<path style=" stroke:none;fill-rule:nonzero;fill:rgb(0%,0%,0%);fill-opacity:1;" d="M 3.824219 5.566406 L 2.433594 5.566406 C 1.859375 5.566406 1.390625 6.035156 1.390625 6.609375 L 1.390625 10.085938 C 1.390625 10.277344 1.546875 10.433594 1.738281 10.433594 C 1.929688 10.433594 2.085938 10.277344 2.085938 10.085938 L 2.085938 9.042969 L 4.175781 9.042969 L 4.175781 10.085938 C 4.175781 10.277344 4.328125 10.433594 4.523438 10.433594 C 4.714844 10.433594 4.871094 10.277344 4.871094 10.085938 L 4.871094 6.609375 C 4.871094 6.035156 4.402344 5.566406 3.824219 5.566406 Z M 4.175781 8.347656 L 2.085938 8.347656 L 2.085938 6.609375 C 2.085938 6.417969 2.242188 6.261719 2.433594 6.261719 L 3.824219 6.261719 C 4.019531 6.261719 4.175781 6.417969 4.175781 6.609375 Z M 4.175781 8.347656 "/>
<path style=" stroke:none;fill-rule:nonzero;fill:rgb(0%,0%,0%);fill-opacity:1;" d="M 8.347656 5.566406 L 6.957031 5.566406 C 6.765625 5.566406 6.609375 5.722656 6.609375 5.914062 L 6.609375 10.085938 C 6.609375 10.277344 6.765625 10.433594 6.957031 10.433594 C 7.148438 10.433594 7.304688 10.277344 7.304688 10.085938 L 7.304688 9.042969 L 8.347656 9.042969 C 9.308594 9.042969 10.085938 8.261719 10.085938 7.304688 C 10.085938 6.34375 9.308594 5.566406 8.347656 5.566406 Z M 8.347656 8.347656 L 7.304688 8.347656 L 7.304688 6.261719 L 8.347656 6.261719 C 8.921875 6.261719 9.390625 6.730469 9.390625 7.304688 C 9.390625 7.878906 8.921875 8.347656 8.347656 8.347656 Z M 8.347656 8.347656 "/>
<path style=" stroke:none;fill-rule:nonzero;fill:rgb(0%,0%,0%);fill-opacity:1;" d="M 14.261719 9.738281 L 13.21875 9.738281 L 13.21875 6.261719 L 14.261719 6.261719 C 14.453125 6.261719 14.609375 6.105469 14.609375 5.914062 C 14.609375 5.722656 14.453125 5.566406 14.261719 5.566406 L 11.476562 5.566406 C 11.285156 5.566406 11.128906 5.722656 11.128906 5.914062 C 11.128906 6.105469 11.285156 6.261719 11.476562 6.261719 L 12.523438 6.261719 L 12.523438 9.738281 L 11.476562 9.738281 C 11.285156 9.738281 11.128906 9.894531 11.128906 10.085938 C 11.128906 10.277344 11.285156 10.433594 11.476562 10.433594 L 14.261719 10.433594 C 14.453125 10.433594 14.609375 10.277344 14.609375 10.085938 C 14.609375 9.894531 14.453125 9.738281 14.261719 9.738281 Z M 14.261719 9.738281 "/>
<path style=" stroke:none;fill-rule:nonzero;fill:rgb(0%,0%,0%);fill-opacity:1;" d="M 14.957031 2.085938 L 9.535156 2.085938 L 8.246094 0.796875 C 8.109375 0.660156 7.890625 0.660156 7.753906 0.796875 L 6.464844 2.085938 L 1.042969 2.085938 C 0.46875 2.085938 0 2.554688 0 3.128906 L 0 4.175781 C 0 4.367188 0.15625 4.523438 0.347656 4.523438 C 0.539062 4.523438 0.695312 4.367188 0.695312 4.175781 L 0.695312 3.128906 C 0.695312 2.9375 0.851562 2.78125 1.042969 2.78125 L 6.609375 2.78125 C 6.703125 2.78125 6.789062 2.746094 6.855469 2.679688 L 8 1.535156 L 9.144531 2.679688 C 9.210938 2.746094 9.296875 2.78125 9.390625 2.78125 L 14.957031 2.78125 C 15.148438 2.78125 15.304688 2.9375 15.304688 3.128906 L 15.304688 4.175781 C 15.304688 4.367188 15.460938 4.523438 15.652344 4.523438 C 15.84375 4.523438 16 4.367188 16 4.175781 L 16 3.128906 C 16 2.554688 15.53125 2.085938 14.957031 2.085938 Z M 14.957031 2.085938 "/>
<path style=" stroke:none;fill-rule:nonzero;fill:rgb(0%,0%,0%);fill-opacity:1;" d="M 15.652344 11.476562 C 15.460938 11.476562 15.304688 11.632812 15.304688 11.824219 L 15.304688 12.871094 C 15.304688 13.0625 15.148438 13.21875 14.957031 13.21875 L 9.390625 13.21875 C 9.296875 13.21875 9.210938 13.253906 9.144531 13.320312 L 8 14.464844 L 6.855469 13.320312 C 6.789062 13.253906 6.703125 13.21875 6.609375 13.21875 L 1.042969 13.21875 C 0.851562 13.21875 0.695312 13.0625 0.695312 12.871094 L 0.695312 11.824219 C 0.695312 11.632812 0.539062 11.476562 0.347656 11.476562 C 0.15625 11.476562 0 11.632812 0 11.824219 L 0 12.871094 C 0 13.445312 0.46875 13.914062 1.042969 13.914062 L 6.464844 13.914062 L 7.753906 15.203125 C 7.820312 15.269531 7.910156 15.304688 8 15.304688 C 8.089844 15.304688 8.179688 15.269531 8.246094 15.203125 L 9.535156 13.914062 L 14.957031 13.914062 C 15.53125 13.914062 16 13.445312 16 12.871094 L 16 11.824219 C 16 11.632812 15.84375 11.476562 15.652344 11.476562 Z M 15.652344 11.476562 "/>
</g>
</svg>
